<?xml version="1.0" encoding="utf-8"?>
<!-- Generator: Adobe Illustrator 27.2.0, SVG Export Plug-In . SVG Version: 6.00 Build 0)  -->
<svg version="1.1" id="Layer_1" xmlns="http://www.w3.org/2000/svg" xmlns:xlink="http://www.w3.org/1999/xlink" x="0px" y="0px"
	 viewBox="0 0 612 792" style="enable-background:new 0 0 612 792;" xml:space="preserve">
<g>
	<path d="M51.01,397.58v-0.08c0-141.34,114.58-255.92,255.92-255.92h0c141.34,0,255.92,114.58,255.92,255.92v0.08
		c0,141.34-114.58,255.92-255.92,255.92h0C165.59,653.5,51.01,538.92,51.01,397.58z M312.42,573.29c24.67-1.1,54.75-1.02,84.5-4.15
		c33.9-3.56,59.25-21.52,73.88-53c7.35-15.8,9.82-32.81,10.07-50.02c0.56-37.32,0.9-74.65,0.73-111.97
		c-0.07-15.46-0.72-31.03-2.77-46.33c-4.64-34.62-22.26-60.4-54.79-74.82c-15.29-6.78-31.64-9.06-48.17-9.37
		c-31.82-0.59-63.65-1.11-95.47-0.85c-20.96,0.17-42.05,0.52-62.82,2.98c-33.84,4.01-59.39,21.23-74.21,52.65
		c-7.14,15.14-9.88,31.46-10.15,47.99c-0.64,39.32-0.9,78.64-0.79,117.96c0.04,13.96,0.9,27.99,2.59,41.84
		c5.93,48.74,40.45,80.74,90.67,84.15C252.76,572.19,279.95,572.25,312.42,573.29z"/>
	<path d="M300,253.75c32.28,0.7,57.11,0.82,81.9,1.9c20.75,0.91,39.67,6.83,53.11,24.24c9.66,12.51,13.53,27.2,13.8,42.47
		c0.78,43.98,1.06,87.96,0.92,131.95c-0.04,12.07-1.1,24.38-3.71,36.14c-6.24,28.1-26.6,46.22-55.33,47.79
		c-33.57,1.83-67.24,1.94-100.87,2.28c-19.15,0.19-38.32-0.36-57.46-1.13c-14.98-0.6-29.38-3.94-41.79-12.97
		c-15.27-11.11-22.56-26.89-24.42-45.11c-1.4-13.72-1.95-27.58-2.07-41.38c-0.27-31.99-0.41-63.99,0.13-95.98
		c0.23-13.24,1.07-26.73,3.85-39.63c6-27.78,26.55-45.65,55.01-47.6C251.13,254.78,279.3,254.49,300,253.75z M396.87,397.38
		c-0.08-49.38-40.76-89.89-90.12-89.75c-49.17,0.14-89.55,40.57-89.63,89.73c-0.08,49.32,40.53,90,89.86,90.01
		C356.33,487.38,396.95,446.71,396.87,397.38z M421.13,304.07c-0.04-11.75-9.07-20.7-20.88-20.7c-11.54,0.01-20.98,9.3-21.06,20.75
		c-0.08,11.41,9.99,21.4,21.36,21.18C412.05,325.08,421.17,315.67,421.13,304.07z"/>
	<path d="M365.11,397.61c-0.06,32.42-26.01,58.15-58.48,58.01c-32.16-0.15-57.79-25.99-57.75-58.24c0.04-32.39,26.01-58.15,58.48-58
		C339.54,339.53,365.17,365.37,365.11,397.61z"/>
</g>
</svg>
